<?xml version="1.0" encoding="UTF-8"?>
<!DOCTYPE svg PUBLIC "-//W3C//DTD SVG 1.1//EN" "http://www.w3.org/Graphics/SVG/1.1/DTD/svg11.dtd">
<!-- Creator: CorelDRAW X7 -->
<svg xmlns="http://www.w3.org/2000/svg" xml:space="preserve" width="6.37843in" height="5.45643in" version="1.1" style="shape-rendering:geometricPrecision; text-rendering:geometricPrecision; image-rendering:optimizeQuality; fill-rule:evenodd; clip-rule:evenodd"
viewBox="0 0 1751 1498"
 xmlns:xlink="http://www.w3.org/1999/xlink">
 <defs>
  <style type="text/css">
   <![CDATA[
    .fil6 {fill:#066938}
    .fil7 {fill:#109F3D}
    .fil8 {fill:#1861A9}
    .fil18 {fill:#1B1B1B}
    .fil16 {fill:#746458}
    .fil17 {fill:#754D24}
    .fil3 {fill:#788A28}
    .fil4 {fill:#A3AF32}
    .fil2 {fill:#A9937F}
    .fil11 {fill:#B4B4B4}
    .fil5 {fill:#C1292E}
    .fil14 {fill:#DDC6A7}
    .fil9 {fill:#E00825}
    .fil1 {fill:#E1CBAC}
    .fil12 {fill:#E52629}
    .fil13 {fill:#E7E6E6}
    .fil0 {fill:#F1E0C6}
    .fil15 {fill:#F2F2F2}
    .fil19 {fill:#F39323}
    .fil10 {fill:#F9B03D}
   ]]>
  </style>
 </defs>
 <g id="Layer_x0020_1">
  <metadata id="CorelCorpID_0Corel-Layer"/>
  <g id="_93313465488">
   <g>
    <g>
     <path class="fil0" d="M1200 1492c-35,0 -71,-1 -107,-1 -25,0 -50,2 -75,2 -30,0 -61,0 -91,-1 -32,-1 -65,-3 -98,-6 -26,-2 -52,-6 -78,-9 -9,-1 -17,-3 -26,-5 -10,-2 -19,-6 -26,-13 -15,-12 -20,-27 -14,-45 2,-8 7,-16 12,-23 10,-15 23,-27 37,-39 31,-23 65,-39 102,-50 30,-10 60,-16 91,-20 34,-5 69,-6 103,-5 28,0 56,2 85,3 11,0 23,2 35,3 13,1 24,2 37,4 27,4 54,10 81,18 27,8 54,18 81,23 24,5 48,9 72,12 42,7 84,13 126,23 18,4 36,11 54,20 15,9 28,20 38,35 3,4 5,8 6,12 4,9 4,18 -2,26 -6,9 -14,16 -24,21 -24,12 -51,17 -78,19 -37,3 -74,2 -111,0 -28,-1 -57,-2 -85,-2 -50,-1 -97,-1 -145,-2 0,0 0,0 0,0z"/>
     <g>
      <ellipse class="fil1" cx="1060" cy="1346" rx="181" ry="41"/>
      <ellipse class="fil1" cx="1360" cy="1387" rx="116" ry="22"/>
     </g>
    </g>
    <g>
     <g>
      <path class="fil2" d="M1255 525c4,-7 5,-15 6,-22 5,-26 6,-53 4,-80 0,-6 0,-10 0,-16 0,-9 4,-16 12,-20 2,-1 4,-2 7,-4 17,-5 35,-10 54,-11 16,-2 30,9 31,26 2,12 0,25 -4,37 -8,29 -18,57 -33,83 -1,2 -2,4 -3,6 -5,12 -11,25 -16,37 -1,2 -2,3 -1,6 2,5 1,10 -1,16 -2,7 -6,14 -10,20 -10,15 -21,29 -32,45 -1,1 -2,3 -4,4 1,1 2,3 3,3 7,7 10,14 7,23 -2,5 -3,9 -6,13 -5,8 -11,17 -17,25 -15,18 -30,37 -45,56 -1,1 -2,2 -3,4 6,12 4,24 0,35 -6,17 -13,34 -20,50 -1,5 -4,9 -6,14 2,2 5,3 6,4 7,4 9,10 6,18 -1,4 -4,8 -6,12 -8,14 -17,27 -24,41 -11,20 -22,40 -34,60 0,2 -1,3 -2,5 10,5 11,14 11,24 -1,3 -1,7 -2,10 -4,22 -9,45 -13,68 -7,32 -12,65 -15,98 0,1 -1,3 -1,5 1,1 1,1 1,1 10,4 13,13 14,23 1,14 0,28 -2,41 -2,14 -6,27 -8,41 -4,16 -14,26 -30,30 -14,3 -27,4 -41,2 -9,-2 -17,-6 -22,-14 -5,-6 -9,-13 -12,-21 -7,-20 -13,-40 -20,-61 -2,-6 -2,-12 1,-18 0,-1 0,-2 0,-3 2,-5 5,-9 10,-12 1,-1 3,-2 5,-3 -1,-7 -2,-15 -3,-22 -6,-28 -13,-56 -19,-84 -4,-19 -8,-39 -11,-59 -2,-5 -2,-10 -1,-15 1,-10 5,-16 13,-20 7,-5 15,-7 24,-8 7,-1 13,-2 21,-2 0,-7 1,-14 2,-20 1,-18 2,-37 4,-56 1,-18 3,-37 6,-55 2,-16 12,-23 27,-25 3,0 8,0 12,0 1,-3 1,-6 2,-8 7,-26 13,-53 20,-79 1,-5 3,-10 5,-15 7,-15 18,-20 34,-17 2,1 3,1 5,2 1,-3 2,-6 3,-9 7,-22 14,-45 21,-68 1,-3 3,-7 5,-10 4,-7 10,-12 19,-14 3,0 4,-2 5,-5 7,-20 12,-40 16,-61 1,-8 3,-17 5,-26 1,-3 2,-6 3,-9 5,-13 16,-19 30,-16 2,-2 4,-1 7,0z"/>
      <g>
       <path class="fil3" d="M985 590c0,3 0,6 1,8 4,17 8,34 12,51 4,17 6,34 6,51 0,5 0,9 -1,13 0,1 -1,3 -2,5 -3,3 -6,4 -9,0 -2,-1 -3,-4 -3,-6 -4,-8 -7,-17 -11,-27 -7,-15 -15,-30 -25,-44 -1,-2 -3,-4 -5,-7 0,3 0,4 0,5 2,20 3,39 5,58 3,26 5,52 4,79 0,3 -1,7 -1,10 0,1 -1,2 -1,4 -2,4 -7,5 -11,1 0,-1 -1,-2 -2,-3 -8,-19 -18,-37 -26,-56 -7,-15 -12,-30 -13,-46 0,-5 0,-10 1,-15 3,-25 7,-50 14,-74 19,-57 47,-109 86,-155 37,-43 80,-78 130,-105 22,-12 46,-21 71,-25 22,-4 46,-5 68,0 6,1 11,2 17,4 -1,-1 -2,-2 -2,-3 -2,-4 -4,-5 -9,-5 0,0 -1,0 -2,0 -9,-2 -13,-6 -14,-15 -1,-7 -2,-8 -9,-8 -3,0 -6,1 -9,1 -7,0 -11,-4 -10,-12 0,-1 0,-1 0,-3 -2,1 -3,1 -4,1 -11,5 -21,10 -33,15 -3,1 -6,3 -10,0 -3,-2 -3,-6 -1,-10 4,-10 9,-20 13,-31 1,-1 2,-4 3,-6 -2,1 -3,1 -5,2 -12,5 -22,12 -33,19 0,1 -1,1 -1,1 -3,3 -6,3 -9,2 -3,-2 -4,-5 -3,-9 0,-3 1,-7 3,-13 -2,2 -4,3 -5,5 -8,7 -17,14 -25,21 -2,1 -5,4 -7,5 -6,3 -11,0 -11,-6 0,-5 1,-9 2,-14 1,-5 2,-11 3,-16 0,-2 0,-3 0,-5 -2,3 -4,5 -6,7 -14,16 -28,33 -42,50 -2,2 -3,4 -6,6 -2,2 -4,3 -7,1 -3,-1 -4,-3 -3,-7 1,-9 3,-18 5,-27 2,-9 5,-19 8,-29 -3,0 -4,2 -5,3 -21,15 -39,31 -58,48 -6,6 -13,12 -20,18 -1,2 -3,4 -6,5 -2,1 -4,1 -5,-1 -3,-1 -3,-4 -3,-6 1,-2 2,-5 3,-7 9,-22 20,-43 31,-64 1,-2 1,-3 2,-5 -2,1 -3,1 -4,2 -35,24 -66,51 -95,81 -6,6 -12,13 -18,19 -2,1 -3,3 -6,4 -2,2 -4,2 -7,1 -2,-2 -2,-4 -2,-7 0,-2 0,-4 1,-6 6,-24 16,-47 27,-70 1,-1 2,-3 3,-6 -2,2 -3,2 -4,3 -33,24 -63,51 -90,81 -3,3 -6,6 -9,9 -1,1 -2,2 -4,3 -4,2 -7,0 -7,-5 0,-1 0,-2 0,-4 4,-20 10,-40 16,-60 1,-2 1,-3 1,-5 -2,1 -3,2 -5,3 -12,8 -24,16 -37,24 -2,2 -5,3 -7,4 -7,4 -12,0 -11,-7 0,-1 0,-2 0,-3 -4,3 -8,5 -11,7 -2,2 -4,3 -6,4 -2,0 -4,0 -5,-1 -2,-1 -2,-3 -1,-5 1,-2 2,-4 3,-6 9,-10 19,-20 30,-27 17,-13 34,-27 53,-38 52,-32 106,-56 166,-67 28,-5 57,-8 86,-6 73,5 140,28 197,76 21,17 39,36 54,58 1,1 1,2 3,4 -3,-22 -6,-42 -9,-63 -2,2 -4,3 -6,5 -5,4 -11,2 -12,-5 -1,-2 -1,-6 -1,-9 -1,-12 -1,-24 -1,-35 0,-1 0,-3 0,-5 -3,2 -6,4 -9,6 -2,2 -5,4 -7,6 -3,2 -6,3 -9,2 -4,-2 -5,-5 -4,-8 0,-5 1,-10 1,-15 1,-8 3,-16 4,-25 -1,1 -2,2 -3,2 -4,4 -9,8 -13,12 -4,5 -10,6 -16,4 -5,-3 -8,-9 -7,-16 1,-3 2,-8 3,-11 5,-15 13,-28 22,-41 7,-10 15,-19 24,-27 22,-19 52,-22 77,-5 23,15 40,34 49,60 8,21 14,43 20,65 0,1 0,2 0,3 0,2 0,5 -2,6 -3,1 -5,0 -7,-2 -3,-2 -6,-5 -9,-7 -3,-2 -6,-4 -10,-8 2,8 3,14 5,20 2,10 3,19 5,28 0,2 0,3 0,5 -1,6 -6,9 -11,5 -3,-2 -5,-5 -8,-7 -2,-1 -3,-3 -5,-3 1,4 1,9 2,13 0,4 1,8 1,12 0,6 -2,7 -8,8 2,12 4,24 5,37 2,-2 3,-3 4,-4 19,-20 39,-39 62,-55 21,-15 42,-27 66,-34 17,-5 33,-6 51,-3 15,2 28,9 40,19 13,11 24,24 33,38 17,27 33,54 48,81 23,47 47,94 70,141 1,2 3,4 4,7 0,1 0,3 1,5 0,2 -1,4 -4,5 -2,1 -4,0 -5,-1 -2,-1 -4,-3 -5,-6 -2,-3 -5,-7 -7,-10 -2,7 -4,13 -5,20 -1,3 -2,7 -6,7 -4,1 -7,-3 -8,-6 -2,-7 -5,-15 -7,-22 -3,-9 -6,-18 -9,-26 0,-1 -1,-3 -3,-4 0,4 -1,8 -2,12 -1,6 -2,11 -3,17 -1,2 -1,4 -2,6 -1,3 -3,5 -6,5 -2,0 -4,-2 -5,-6 -1,-2 -1,-3 -1,-6 -4,-22 -8,-44 -12,-67 0,-4 -2,-9 -4,-13 -1,3 -2,5 -3,8 0,1 -1,3 -2,5 -2,4 -7,3 -9,0 -1,-2 -1,-3 -2,-5 -2,-6 -3,-12 -5,-18 0,1 -1,2 -1,4 -1,17 -2,35 -3,52 0,3 -1,5 -2,7 -1,2 -3,3 -5,3 -1,0 -3,-2 -4,-4 -1,-2 -1,-5 -1,-8 -1,-9 0,-19 -1,-28 -2,-20 -7,-39 -13,-58 -3,-10 -8,-20 -11,-30 -1,-2 -2,-4 -4,-5 0,5 1,8 1,13 0,13 0,26 1,38 0,1 0,3 -1,4 0,2 -1,4 -4,4 -3,1 -4,-1 -5,-3 -1,-1 -1,-2 -1,-3 -7,-24 -19,-45 -33,-65 -2,-2 -4,-5 -7,-7 0,1 1,3 1,4 3,18 7,36 10,55 1,1 1,3 0,5 0,4 -5,7 -9,3 -2,-1 -3,-2 -4,-4 -7,-10 -13,-19 -19,-29 -2,-3 -4,-6 -5,-8 -1,0 -1,0 -1,1 0,3 0,5 0,8 1,13 3,25 4,38 0,2 0,5 -1,7 0,3 -2,4 -5,5 -3,0 -4,-1 -6,-4 0,-1 -1,-3 -2,-4 -4,-10 -8,-19 -12,-29 0,-1 -1,-2 -3,-3 1,6 1,12 3,17 1,7 1,14 2,21 0,1 0,2 0,3 0,3 -1,5 -4,6 -2,0 -4,-1 -6,-3 -1,-2 -2,-4 -3,-6 -5,-10 -10,-20 -15,-29 -1,-1 -1,-2 -3,-2 0,2 2,4 2,6 0,2 1,5 1,8 0,6 -5,8 -10,6 -2,-1 -3,-2 -5,-4 -8,-5 -16,-11 -24,-17 -1,4 -1,8 -2,12 7,5 14,10 21,16 5,4 10,7 15,12 13,11 26,23 38,35 29,29 50,63 67,101 11,27 22,55 30,83 5,16 7,32 8,48 0,13 0,26 0,39 0,4 -1,7 -2,11 -1,3 -4,6 -7,6 -3,0 -6,-3 -7,-6 -1,-4 -1,-7 -2,-11 0,-1 0,-3 -1,-5 -2,3 -2,7 -2,10 -1,7 -3,14 -8,19 0,1 -1,2 -1,2 -7,7 -15,6 -19,-3 -4,-10 -6,-20 -7,-30 -2,-13 -2,-26 -4,-39 0,-1 0,-2 0,-5 -2,2 -2,3 -3,4 -2,3 -5,6 -7,8 -7,7 -17,5 -21,-3 -1,-3 -2,-6 -3,-8 -1,-10 -2,-19 -4,-29 -4,-17 -11,-34 -19,-49 -3,-6 -7,-12 -11,-17 0,1 0,2 0,3 5,17 10,34 14,51 1,2 2,5 2,9 -1,6 -6,8 -11,6 -3,-2 -5,-5 -8,-7 -4,-3 -7,-7 -11,-10 0,2 1,3 1,4 13,29 22,60 29,92 1,2 1,4 1,7 -1,5 -5,7 -9,5 -2,-1 -4,-2 -6,-4 -5,-4 -9,-7 -15,-11 0,2 1,4 2,5 4,13 8,26 13,39 0,2 1,4 1,7 1,8 -4,11 -11,9 -5,-2 -10,-5 -15,-8 -1,0 -3,-1 -5,-2 0,3 1,6 1,9 4,12 7,25 10,37 1,3 1,5 1,8 0,5 -5,8 -9,5 -4,-1 -7,-4 -11,-6 -6,-3 -6,-3 -13,-5 -3,5 -7,10 -10,15 -3,5 -6,9 -9,14 -3,4 -6,5 -9,4 -2,-2 -4,-4 -2,-10 0,-3 1,-7 2,-12 -1,2 -2,3 -3,3 -7,8 -14,15 -21,23 -2,3 -5,5 -9,7 -2,1 -5,1 -7,0 -3,-2 -3,-5 -2,-8 2,-5 4,-9 7,-14 6,-12 12,-22 17,-34 4,-7 6,-15 9,-22 1,-2 1,-4 1,-7 -3,2 -5,3 -6,5 -4,3 -7,5 -11,8 -2,1 -4,2 -7,3 -5,1 -9,-3 -8,-8 0,-4 1,-6 2,-9 3,-5 6,-11 9,-16 3,-6 5,-12 9,-18 -1,0 -1,-1 -1,-1 -2,1 -3,3 -5,4 -5,6 -10,11 -15,16 -4,4 -8,7 -12,11 -2,1 -4,2 -6,3 -5,2 -9,-2 -9,-7 1,-3 2,-6 3,-8 4,-6 7,-13 11,-19 8,-13 16,-25 24,-38 5,-7 8,-16 12,-24 1,-1 1,-2 1,-5 -2,2 -4,3 -6,4 -3,2 -5,3 -8,5 -8,2 -14,-3 -13,-11 0,-4 2,-8 3,-11 4,-10 8,-19 13,-30 1,-2 1,-5 2,-8 -2,2 -3,3 -4,3 -4,5 -9,10 -13,14 -3,3 -6,6 -10,9 -2,2 -5,3 -7,4 -7,3 -12,-2 -10,-9 1,-4 2,-6 3,-9 3,-7 7,-13 11,-20 9,-18 18,-36 24,-55 3,-8 4,-16 6,-23 0,-1 0,-2 -1,-4 -2,2 -3,4 -5,5 -5,7 -10,13 -16,19 -4,3 -7,5 -11,7 -6,4 -12,0 -12,-8 0,-4 2,-7 3,-11 4,-14 8,-28 13,-42 2,-9 3,-19 6,-28 0,-3 0,-5 0,-8 -2,2 -3,2 -4,3 -3,4 -7,7 -11,9 -3,3 -7,4 -11,2 -4,-2 -5,-6 -5,-10 1,-10 2,-19 3,-29 1,-6 2,-13 2,-20 -1,2 -3,3 -4,5 -14,25 -26,51 -34,79 0,2 -1,4 -2,6 -3,6 -6,8 -12,5 -1,0 -1,0 -2,0 -1,4 -2,7 -3,10 -3,10 -5,21 -8,31 0,2 -1,4 -1,6 -3,6 -9,7 -14,4 -1,-1 -2,-2 -4,-3 0,3 -1,6 -2,8 -3,20 -7,39 -11,58 0,2 0,5 -1,7 -3,8 -10,11 -17,7 -3,-2 -6,-5 -9,-7 0,2 -1,4 -2,6 -8,25 -13,49 -17,74 -1,3 -2,6 -3,8 -2,4 -5,6 -8,6 -5,0 -7,-2 -9,-5 -2,-5 -3,-10 -3,-15 -1,-2 -1,-6 -1,-8 -1,0 -1,0 -1,0 -8,3 -13,1 -15,-8 0,-5 0,-11 0,-16 1,-11 3,-23 4,-34 -6,-4 -7,-7 -3,-14 6,-14 11,-27 18,-40 1,-2 2,-3 2,-5 -4,-3 -3,-8 -1,-12 4,-11 11,-20 18,-30 1,-2 3,-4 4,-6 0,-1 -1,-1 -1,-2 -5,-4 -5,-8 -3,-13 1,-3 3,-6 4,-8 14,-21 29,-41 47,-60 7,-8 15,-16 23,-25 1,-1 1,-2 3,-3 -7,0 -10,-4 -12,-9 -2,-4 -4,-8 -6,-11 -1,-2 -1,-4 -3,-6 -1,2 -2,4 -3,6 -5,11 -8,21 -13,32 -1,3 -2,6 -3,9 -3,3 -5,6 -10,6 -4,0 -7,-4 -8,-7 -1,-7 -3,-14 -5,-21 -1,-2 -1,-4 -2,-6 -1,1 -1,2 -1,4 -2,16 -3,32 -5,49 -1,10 -3,20 -6,30 0,4 -2,8 -4,11 -5,6 -11,6 -14,-1 -2,-4 -3,-8 -4,-12 -2,-7 -4,-14 -6,-22 -2,-11 -7,-20 -14,-29 -1,-2 -2,-3 -4,-5 0,3 0,6 0,8 1,17 3,34 4,50 1,19 0,39 -3,58 0,2 -1,4 -2,7 -3,4 -8,4 -11,0 -2,-3 -3,-5 -3,-7 -3,-13 -7,-25 -10,-37 -3,-10 -6,-20 -11,-28 -1,-2 -2,-4 -5,-6 2,7 3,14 4,21 4,17 7,35 8,52 0,4 1,6 0,9 0,4 -1,7 -5,9 -3,1 -7,0 -9,-4 -2,-5 -5,-9 -8,-14 -4,-6 -8,-13 -13,-20 -1,-2 -4,-4 -6,-6 0,5 0,10 0,15 0,13 2,26 2,38 1,6 0,12 0,17 0,3 -2,7 -5,7 -4,1 -7,-1 -9,-4 -2,-2 -3,-5 -5,-7 -5,-10 -11,-20 -16,-29 -2,-3 -4,-5 -6,-7 0,0 0,0 -1,0 1,2 1,4 2,6 8,25 16,49 24,74 5,16 8,33 12,50 3,17 3,34 1,52 0,3 -1,7 -2,10 -1,2 -3,4 -6,5 -3,0 -4,-2 -5,-4 -2,-4 -4,-8 -5,-13 -4,-16 -8,-32 -13,-48 -4,-14 -9,-28 -16,-41 -7,-12 -14,-22 -25,-30 0,-9 -2,-11 -6,-11z"/>
      </g>
     </g>
     <g>
      <g>
       <path class="fil4" d="M1430 1245l0 133c0,5 -3,8 -7,8l-125 0c-5,0 -8,-3 -8,-8l0 -133c0,-4 3,-8 8,-8l125 0c4,0 7,4 7,8z"/>
       <path class="fil3" d="M1441 1223l0 40c0,1 -1,1 -2,1l-158 0c-1,0 -1,0 -1,-1l0 -40c0,-1 0,-2 1,-2l158 0c1,0 2,1 2,2z"/>
      </g>
      <polygon class="fil5" points="1430,1305 1378,1305 1378,1264 1378,1237 1378,1221 1342,1221 1342,1237 1342,1264 1342,1305 1290,1305 1290,1341 1342,1341 1342,1386 1378,1386 1378,1341 1430,1341 "/>
     </g>
     <g>
      <g>
       <g>
        <path class="fil6" d="M1673 287c-2,-16 -7,-32 -15,-46 -12,-19 -30,-27 -51,-29 -2,0 -6,1 -8,2 4,3 13,12 18,19 1,0 6,1 7,2 7,4 13,9 17,16 2,5 4,9 6,14 7,19 9,38 8,57 0,19 -3,37 -5,54 -6,36 -12,71 -16,106 -2,8 -4,15 -6,23 -1,4 -3,8 -5,11 -5,6 -9,6 -15,1 -3,-2 -6,-5 -9,-8 -2,-3 -5,-6 -8,-9 -9,-7 -20,-10 -30,-7 -15,4 -25,14 -32,27 -3,6 -5,12 -7,20 -6,24 -12,49 -18,74 -2,9 -5,17 -9,26 -2,5 -5,10 -9,13 -2,-2 -3,-4 -4,-5 -3,-5 -6,-10 -9,-15 -7,-11 -18,-19 -31,-23 -6,-1 -13,-2 -20,-2 -9,-1 -18,-2 -27,-2 -17,-1 -29,-10 -34,-26 0,-2 -1,-4 -2,-7 -1,-8 -3,-16 -4,-25 -2,-8 -3,-16 -7,-24 -6,-13 -15,-20 -29,-22 -6,-1 -12,-1 -18,1 -19,4 -35,13 -49,25 -11,9 -20,20 -29,32 -12,16 -23,34 -33,52 -18,31 -35,62 -53,93 -7,13 -15,26 -24,39 -4,7 -10,14 -16,20 -10,8 -18,8 -25,-3 -4,-5 -7,-11 -10,-17 -6,-14 -9,-30 -11,-45 -2,-20 -4,-40 -6,-60 -2,-34 -4,-68 -6,-102 -1,-20 -2,-39 -5,-59 -3,-12 -6,-24 -12,-35 -13,-23 -39,-35 -65,-30 -7,1 -13,4 -20,7 -6,2 -10,4 -16,6 -9,2 -16,-1 -22,-8 -5,-5 -8,-11 -9,-17 -3,-10 -4,-21 -4,-32 -2,-26 -2,-52 -5,-78 -1,-15 -5,-30 -9,-44 -6,-15 -15,-28 -28,-38 -4,-3 -9,-5 -13,-8 -4,-1 -9,-2 -13,-1 -1,1 -3,2 -3,3 0,1 1,2 2,3 1,1 2,1 3,1 15,7 25,18 32,33 4,7 7,15 9,23 6,22 7,45 7,69 1,15 1,30 1,46 1,11 3,22 7,33 3,8 6,15 12,20 9,9 21,13 34,11 6,-1 13,-4 19,-6 4,-2 9,-4 14,-6 21,-6 42,4 51,24 3,6 4,13 6,20 4,18 4,37 5,55 1,21 2,41 3,61 2,26 4,51 6,76 2,18 4,36 8,53 3,15 8,30 16,44 4,6 8,11 13,16 12,11 26,12 39,4 5,-4 10,-8 14,-12 7,-8 13,-15 17,-24 20,-33 39,-66 58,-99 13,-22 26,-44 39,-66 8,-13 17,-25 28,-35 12,-11 25,-20 41,-25 5,-1 9,-2 15,-1 8,1 14,4 17,12 0,2 1,4 2,7 1,5 2,11 3,18 2,11 4,23 9,33 8,20 24,31 45,33 12,1 24,2 36,2 14,2 25,6 32,19 2,4 5,8 8,12 2,3 4,6 7,9 8,7 15,7 24,1 5,-4 10,-10 13,-16 4,-8 7,-15 10,-24 6,-21 10,-42 16,-63 2,-10 5,-21 8,-32 3,-9 9,-15 17,-19 7,-4 13,-3 18,3 3,2 4,5 7,7 4,4 7,8 11,11 13,9 31,6 40,-7 4,-5 7,-10 9,-16 4,-8 5,-17 6,-27 3,-18 6,-36 9,-53 4,-29 11,-57 14,-86 1,-19 2,-39 -2,-58z"/>
       </g>
       <g>
        <path class="fil7" d="M1018 558c-3,2 -7,2 -10,1 -3,-1 -5,-1 -9,-2 -2,0 -4,-1 -7,-1 -5,-1 -10,-3 -14,-5 -2,-1 -3,-2 -4,-3 -4,-3 -3,-7 0,-10 1,-1 2,-2 3,-3 3,-1 4,-2 6,-3 7,-4 14,-6 21,-8 4,0 7,-1 10,-1 4,0 8,2 10,6 0,1 1,2 1,3 1,3 2,6 3,9 0,2 0,4 0,7 0,0 0,0 0,1 -2,4 -5,8 -10,9z"/>
        <path class="fil7" d="M1649 355c-4,1 -7,0 -11,-1 -2,-1 -4,-2 -8,-3 -2,-2 -4,-3 -7,-4 -4,-2 -8,-5 -13,-7 -1,-1 -2,-2 -3,-4 -3,-3 -2,-8 2,-10 1,-1 2,-2 4,-3 2,0 4,-1 6,-2 7,-2 15,-3 23,-3 3,0 6,1 9,1 5,1 7,4 8,8 1,1 1,2 2,3 0,3 0,6 0,9 0,2 -1,4 -2,6 0,1 0,1 0,1 -2,6 -6,9 -10,9z"/>
        <path class="fil7" d="M1361 578c2,-2 5,-5 8,-7 2,-1 5,-2 7,-4 3,-1 5,-2 7,-3 5,-2 10,-4 15,-6 1,0 3,0 4,0 5,0 7,4 7,7 0,2 -1,4 -1,5 -1,2 -2,4 -3,6 -3,7 -6,14 -11,19 -2,3 -5,5 -7,7 -4,3 -7,3 -12,2 -1,-1 -2,-1 -3,-2 -3,-1 -5,-3 -7,-5 -2,-2 -3,-3 -4,-5 0,-1 -1,-1 -1,-1 -1,-3 -1,-8 1,-13z"/>
        <path class="fil8" d="M978 437c0,4 0,7 0,11 -1,2 -2,5 -3,8 0,3 -1,5 -2,7 -2,5 -4,10 -6,14 -1,1 -2,3 -3,4 -3,3 -8,2 -10,0 -1,-1 -2,-3 -3,-4 -1,-2 -1,-4 -2,-7 -4,-7 -5,-14 -6,-21 0,-3 0,-7 0,-10 1,-5 3,-7 7,-10 1,0 2,-1 3,-1 3,-1 6,-1 9,-1 2,0 4,0 6,1 1,0 1,0 1,0 5,1 8,5 9,9z"/>
        <path class="fil8" d="M1651 504c4,0 7,1 11,3 2,2 4,3 7,4 2,2 4,3 7,5 3,2 8,6 11,9 1,2 2,3 3,5 2,4 0,8 -3,10 -2,0 -3,1 -4,1 -2,0 -5,0 -7,1 -7,1 -14,1 -22,-1 -3,0 -6,-1 -10,-3 -3,-1 -6,-4 -7,-8 0,-1 0,-2 0,-3 0,-3 0,-6 1,-9 0,-2 1,-4 2,-6 0,-1 1,-1 1,-1 1,-6 5,-8 10,-7z"/>
        <path class="fil8" d="M1246 566c4,1 7,3 9,5 3,2 4,4 6,6 2,2 4,4 6,6 3,4 6,7 9,12 1,1 2,3 2,4 1,5 -2,9 -5,9 -2,0 -3,1 -5,0 -2,0 -4,0 -6,0 -8,-1 -15,-3 -22,-6 -3,-1 -6,-3 -8,-5 -4,-2 -5,-6 -5,-10 0,-1 0,-2 0,-3 1,-3 2,-6 4,-8 1,-2 2,-4 3,-6 0,0 0,0 0,-1 3,-3 8,-5 12,-3z"/>
        <path class="fil9" d="M865 408c-3,1 -7,1 -10,1 -3,-1 -6,-1 -9,-2 -2,0 -5,-1 -7,-1 -5,-1 -10,-3 -14,-5 -2,0 -4,-1 -5,-2 -3,-3 -3,-8 0,-11 1,-1 2,-2 3,-2 3,-1 4,-3 6,-4 7,-3 14,-6 21,-8 3,0 6,-1 10,-1 4,0 7,2 9,6 1,1 1,2 2,3 1,3 2,5 2,8 0,3 0,5 0,7 0,0 0,0 0,1 0,5 -4,9 -8,10z"/>
        <path class="fil9" d="M1127 706c-3,-1 -6,-3 -8,-5 -2,-2 -4,-4 -6,-6 -2,-2 -3,-4 -5,-6 -3,-4 -6,-9 -9,-13 -1,-1 -1,-3 -1,-5 -1,-4 2,-8 6,-8 1,0 3,0 4,0 2,0 4,1 7,1 7,1 14,4 21,7 3,1 6,3 8,5 3,3 5,6 5,10 0,1 -1,3 -1,4 -1,2 -2,5 -3,8 -1,1 -2,3 -4,5 0,0 -1,0 -1,0 -3,4 -8,5 -13,3z"/>
        <path class="fil9" d="M1511 542c-3,-1 -6,-2 -9,-5 -2,-1 -4,-3 -6,-6 -2,-1 -4,-3 -6,-5 -3,-4 -7,-7 -9,-11 -1,-2 -2,-3 -2,-5 -2,-4 1,-8 4,-9 2,0 4,0 5,0 2,0 4,0 6,0 8,0 15,1 22,4 3,1 6,2 9,4 4,2 5,6 5,10 0,1 0,2 0,4 -1,2 -1,6 -3,8 -1,2 -2,4 -3,5 0,1 -1,1 -1,1 -2,5 -7,6 -12,5z"/>
        <path class="fil10" d="M859 275c-3,3 -6,4 -10,5 -3,0 -6,1 -9,1 -2,1 -5,1 -7,1 -5,1 -10,1 -16,1 -1,0 -3,-1 -4,-1 -5,-2 -6,-6 -4,-10 0,-1 1,-3 2,-4 2,-1 3,-3 4,-5 5,-6 11,-11 17,-15 3,-1 6,-3 9,-4 4,-2 8,0 12,2 1,0 1,1 2,2 2,2 4,4 5,7 1,2 2,4 2,6 0,0 0,0 1,1 1,6 -1,10 -4,13z"/>
        <path class="fil10" d="M1031 721c-3,2 -7,3 -10,3 -3,0 -6,0 -9,0 -2,0 -5,0 -8,-1 -5,0 -9,-1 -14,-2 -2,-1 -3,-1 -5,-2 -4,-2 -4,-7 -2,-10 1,-2 2,-3 3,-4 2,-1 4,-2 5,-4 6,-5 13,-8 20,-11 3,-1 6,-2 10,-3 4,0 7,1 10,4 0,1 1,2 2,3 2,3 3,5 3,8 1,2 1,4 1,6 0,1 0,1 0,1 1,5 -2,10 -6,12z"/>
        <path class="fil10" d="M1469 669c-3,3 -6,4 -9,6 -3,1 -6,1 -9,2 -2,1 -5,1 -8,2 -4,1 -9,1 -14,2 -2,0 -3,0 -5,-1 -4,-1 -6,-5 -5,-9 1,-1 1,-2 2,-4 1,-2 3,-4 4,-5 4,-7 9,-12 15,-17 3,-2 6,-3 9,-5 4,-2 7,-2 11,1 1,0 2,1 3,2 2,1 4,4 6,6 1,2 2,4 3,6 0,0 1,0 1,1 1,5 -1,10 -4,13z"/>
       </g>
       <g>
        <path class="fil11" d="M1043 548c0,0 -1,0 -2,0 -4,1 -9,1 -13,1 0,0 -1,0 -2,-1 0,0 0,0 0,-1 0,-2 0,-4 0,-6 0,-3 -1,-6 -2,-9 1,-1 2,-1 3,-1 2,0 3,-1 4,-1 3,0 6,-1 9,-1 2,0 3,1 3,2 1,4 2,9 1,12 0,1 0,2 0,2 0,2 0,2 -1,3z"/>
        <path class="fil11" d="M1676 349c-1,0 -2,0 -3,0 -4,0 -8,-1 -12,-2 -1,0 -2,0 -2,0 0,-1 0,-1 0,-1 1,-3 2,-5 2,-7 0,-3 0,-6 0,-8 0,-1 1,-1 2,-1 2,0 3,0 5,0 2,0 5,1 8,1 2,0 3,1 3,2 0,5 0,8 -1,12 0,1 -1,2 -1,2 0,2 -1,2 -1,2z"/>
        <path class="fil11" d="M1349 603c0,-1 0,-1 1,-2 3,-3 6,-6 10,-9 0,0 1,0 1,0 0,0 1,0 1,1 1,2 3,3 4,5 2,2 5,4 7,5 0,1 0,2 -1,3 -1,1 -1,2 -3,3 -2,2 -3,5 -6,7 -1,1 -2,1 -3,0 -4,-2 -7,-5 -9,-8 0,-1 -1,-2 -1,-2 -2,-2 -2,-2 -1,-3z"/>
        <path class="fil11" d="M969 412c0,0 1,1 1,2 0,4 0,8 -1,13 0,0 0,1 0,1 -1,0 -1,0 -1,0 -3,0 -5,0 -7,0 -3,0 -6,0 -8,1 -1,-1 -2,-2 -2,-3 0,-2 0,-3 0,-4 0,-3 -1,-6 -1,-9 0,-1 1,-3 3,-3 4,0 8,-1 12,0 1,0 2,0 3,0 0,0 1,0 1,2z"/>
        <path class="fil11" d="M1624 505c0,0 1,0 2,0 4,1 8,2 12,4 1,0 1,0 2,1 0,0 -1,0 -1,1 -1,2 -1,4 -2,6 0,3 -1,6 -1,8 0,1 -1,1 -2,0 -2,0 -3,0 -5,-1 -3,0 -6,-1 -8,-2 -2,0 -3,-1 -3,-3 1,-4 1,-8 4,-12 0,0 0,-1 0,-2 1,0 1,0 2,0z"/>
        <path class="fil11" d="M1220 561c0,0 1,1 2,1 4,1 8,4 11,6 1,1 1,1 1,1 0,1 0,1 0,1 -1,2 -3,4 -3,6 -2,2 -3,5 -4,8 0,0 -1,0 -2,-1 -1,0 -3,-1 -4,-1 -3,-1 -5,-3 -8,-4 -2,-1 -2,-2 -2,-4 2,-4 3,-7 6,-11 1,0 1,-1 1,-1 0,-1 1,-1 2,-1z"/>
        <path class="fil11" d="M890 396c-1,1 -2,1 -2,1 -5,0 -9,1 -13,1 -1,0 -1,0 -2,-1 0,0 0,0 0,-1 0,-2 0,-4 0,-6 0,-3 -1,-6 -2,-9 1,0 2,-1 3,-1 1,0 2,0 4,0 3,-1 6,-1 9,-2 1,0 2,1 3,2 1,4 1,8 1,12 0,1 0,2 0,2 0,1 -1,2 -1,2z"/>
        <path class="fil11" d="M1154 712c0,0 -1,0 -2,0 -3,-2 -7,-5 -10,-7 -1,-1 -2,-1 -2,-1 1,0 1,-1 1,-1 1,-1 3,-3 4,-5 1,-2 2,-5 3,-8 1,0 2,0 3,1 1,0 2,1 3,2 3,2 6,3 8,4 2,1 2,2 1,4 -1,4 -3,8 -6,10 -1,1 -1,1 -1,2 0,-1 -1,0 -2,-1z"/>
        <path class="fil11" d="M1539 545c-1,0 -2,0 -2,0 -4,-2 -8,-4 -11,-6 -1,-1 -2,-1 -2,-1 0,-1 1,-1 1,-1 1,-2 2,-4 3,-6 1,-2 2,-5 3,-8 0,0 2,0 3,0 1,1 2,1 3,2 3,1 6,2 8,3 2,1 3,2 2,3 -1,4 -3,8 -5,11 0,1 0,1 -1,2 -1,1 -1,2 -2,1z"/>
        <path class="fil11" d="M877 256c0,1 -1,1 -1,2 -4,2 -8,3 -12,5 -1,0 -1,1 -2,1 0,-1 0,-1 0,-2 -1,-2 -2,-3 -2,-5 -1,-3 -3,-5 -5,-7 0,-1 1,-2 2,-3 1,0 2,-1 4,-2 2,-1 5,-3 7,-4 2,-1 3,-1 4,1 2,3 4,7 5,11 0,0 1,1 1,2 1,0 1,0 -1,1z"/>
        <path class="fil11" d="M1053 706c0,0 -1,0 -2,1 -4,2 -8,2 -12,3 -1,0 -1,0 -2,0 0,-1 0,-1 0,-1 0,-3 0,-5 -1,-6 0,-3 -1,-6 -3,-8 1,-1 1,-2 2,-2 1,-1 3,-1 4,-2 3,-1 5,-1 9,-2 1,-1 2,0 3,1 1,4 3,8 3,12 0,1 0,2 1,2 0,1 0,1 -2,2z"/>
        <path class="fil11" d="M1486 648c0,1 -1,1 -2,2 -3,2 -7,4 -11,6 0,1 -1,1 -1,1 0,-1 0,-1 -1,-1 -1,-3 -2,-4 -3,-6 -2,-2 -4,-5 -6,-6 0,-1 0,-2 1,-2 1,-1 3,-2 4,-3 2,-2 5,-3 7,-5 1,-1 2,-1 3,1 3,3 5,6 7,10 0,0 0,1 1,2 2,-1 2,1 1,1z"/>
       </g>
      </g>
      <g>
       <path class="fil12" d="M1402 56c-1,1 -2,1 -3,1 -13,6 -21,11 -36,12l-1 0c-4,0 -9,0 -14,0l-1 0c-16,-3 -20,-7 -33,0 -15,8 -40,15 -57,24 -3,2 -5,3 -7,3l0 0c-9,0 -17,0 -24,2 0,0 0,0 0,0 -7,1 -16,4 -26,12 -20,14 -27,34 -23,50 2,6 -1,13 -6,17 -18,15 -40,67 -44,66 -11,-2 -18,-11 -16,-22 1,-2 1,-3 1,-5 25,-84 33,-89 40,-117 7,-28 13,-75 66,-73 54,3 45,-25 82,-26 39,-1 94,39 102,56z"/>
       <path class="fil13" d="M1112 276c-8,1 -10,-10 -23,-16 -12,-7 0,-26 7,-30 2,-2 3,-3 5,-4 8,-3 14,-2 17,0l0 0c2,1 3,2 3,2 1,3 9,5 14,2 4,-4 9,0 11,20 3,21 -26,25 -34,26z"/>
       <path class="fil13" d="M1466 125c-25,9 -29,7 -45,-5 -15,-11 -28,-20 -45,-9 -16,11 -9,16 -35,9 -25,-7 -23,7 -40,16 -16,8 -25,13 -36,13 -10,0 -8,9 -20,15 -11,6 -37,21 -54,9 -4,-3 -7,-6 -10,-10 -10,-17 -3,-42 19,-58 11,-8 19,-11 26,-12 0,0 0,0 1,0 9,-1 16,0 24,-2l0 0c2,-1 4,-1 6,-3 17,-9 43,-16 57,-24 14,-8 18,-3 33,-1l1 0c1,0 2,0 3,1 4,0 8,0 12,0l0 0c15,-1 23,-6 37,-12 1,0 2,-1 3,-1 13,-5 24,11 33,19 10,7 15,4 28,2 14,-3 26,43 2,53z"/>
      </g>
     </g>
    </g>
   </g>
   <g>
    <g>
     <path class="fil0" d="M760 1215c-41,37 -608,43 -662,0 -37,-38 32,-85 71,-92 40,-7 41,-23 70,-26 11,-1 25,1 41,5 24,6 49,14 69,15 27,1 164,-2 232,-6 16,0 28,-1 34,-2 33,-3 46,16 75,39 29,23 88,49 70,67z"/>
     <path class="fil14" d="M588 1127c0,30 -73,55 -163,55 -89,0 -162,-25 -162,-55 0,-9 6,-17 17,-24 24,6 49,14 69,14 27,1 164,-2 232,-5 5,4 7,10 7,15z"/>
    </g>
    <path class="fil0" d="M460 857c31,-16 52,-47 52,-85 0,-52 -42,-93 -93,-93 -52,0 -93,42 -93,93 0,39 23,72 57,87 -65,18 -112,77 -112,148 0,86 69,155 154,155 86,0 155,-69 155,-155 0,-74 -51,-135 -120,-150z"/>
    <g>
     <path class="fil15" d="M484 705c-15,6 -18,4 -27,-3 -9,-6 -17,-12 -27,-5 -9,6 -6,9 -21,5 -16,-4 -15,4 -25,9 -9,6 -15,8 -21,8 -6,0 -5,6 -12,10 -7,4 -23,13 -33,5 -2,-1 -4,-3 -5,-5 -7,-11 -3,-26 11,-36 6,-5 11,-7 16,-7 0,0 0,0 0,0 5,-1 9,0 14,-1l0 0c1,-1 2,-1 3,-2 11,-5 26,-10 35,-14 8,-5 10,-2 20,0l0 0c1,0 2,0 2,0 2,0 5,0 7,0l0 0c9,-1 14,-4 22,-7 1,0 1,-1 2,-1 9,-3 15,7 20,11 6,5 9,3 18,1 9,-2 16,26 1,32z"/>
     <path class="fil12" d="M446 660c-1,0 -1,1 -2,1 -8,3 -13,7 -22,7l0 0c-3,0 -6,0 -9,0l-1 0c-9,-2 -11,-4 -20,0 -8,5 -24,9 -34,15 -1,0 -3,1 -4,1l0 0c-5,0 -10,0 -14,1 0,0 0,0 0,0 -4,1 -9,2 -16,7 -14,11 -17,26 -11,36 -12,10 -29,21 -27,44 0,1 0,2 0,2 -4,-1 -10,-3 -18,1 1,-5 2,-11 4,-18 15,-51 20,-54 24,-71 5,-17 8,-46 40,-44 33,2 27,-16 50,-16 22,0 55,24 60,34z"/>
     <path class="fil15" d="M265 808c-8,1 -11,-9 -24,-16 -12,-6 0,-26 7,-31 2,-1 4,-2 5,-3 9,-4 15,-2 17,0l0 0c2,1 3,2 4,2 1,3 9,5 14,1 5,-3 9,1 11,22 3,20 -26,25 -34,25z"/>
    </g>
    <circle class="fil16" cx="397" cy="746" r="10"/>
    <circle class="fil16" cx="456" cy="739" r="10"/>
    <g>
     <path class="fil16" d="M410 831c14,9 39,10 50,-3 4,-5 -7,-9 -10,-4 -7,8 -23,6 -31,0 -6,-3 -14,3 -9,7l0 0z"/>
    </g>
    <g>
     <path class="fil17" d="M773 845c-28,-8 -59,-10 -86,-3 6,-4 12,-8 17,-14 8,-8 12,-17 15,-28 0,0 0,0 0,-1 8,-19 30,-27 47,-36 6,-3 1,-11 -5,-8 -13,7 -28,14 -40,24 4,-31 4,-63 8,-94 2,-6 -8,-8 -9,-2 -5,30 -5,62 -8,93 -2,18 -4,35 -18,48 -9,9 -48,37 -56,45 -17,16 -30,37 -46,53 -22,22 -50,32 -79,40 -5,2 -3,11 3,10 23,-7 46,-15 66,-29 17,-12 30,-29 43,-45 16,-20 34,-37 59,-46 28,-10 58,-7 87,1 5,2 8,-7 2,-8z"/>
     <path class="fil17" d="M329 945c-22,-11 -37,-23 -53,-41 -13,-16 -28,-28 -47,-37 -15,-7 -37,-9 -51,-21 0,-1 -1,-1 -1,-1 -4,-5 -8,-10 -9,-17 -3,-12 -2,-25 -2,-38 -1,-14 -1,-28 -1,-41 0,-6 -10,-6 -10,0 1,25 -2,55 3,80 -6,-5 -13,-10 -20,-14 -21,-12 -38,-25 -46,-48 -8,-22 -7,-44 -8,-67 -2,-21 -4,-42 -7,-63 -2,-6 -11,-4 -10,2 5,26 7,53 8,79 0,16 2,32 6,47 -22,-15 -51,-19 -74,-34 -5,-4 -10,5 -5,8 28,19 68,19 88,48 1,0 1,1 2,1 7,11 15,20 27,27 20,13 50,44 81,52 28,7 50,21 69,44 16,20 32,31 55,42 6,2 11,-6 5,-8z"/>
    </g>
    <g>
     <circle class="fil3" cx="455" cy="927" r="14"/>
     <circle class="fil3" cx="475" cy="986" r="14"/>
     <circle class="fil3" cx="484" cy="1065" r="14"/>
    </g>
    <path class="fil18" d="M529 717c0,-1 0,-3 0,-4 0,-2 0,-3 0,-5 0,-2 -1,-3 -3,-3 -1,0 -1,0 -2,0 -4,-1 -7,0 -10,0 -3,0 -5,0 -8,0 -4,1 -8,1 -12,2 -2,0 -32,6 -35,6 -1,1 -2,1 -4,1l-9 3c-1,1 -2,1 -3,1 -2,1 -6,2 -8,3 -4,1 -6,2 -10,2 -1,1 -31,1 -35,2 -1,0 -1,0 -2,0l-38 6c0,0 0,0 0,0 -2,1 -4,1 -6,1 -3,1 -6,2 -9,2 -3,1 -6,2 -8,2 -1,0 -3,1 -4,2 0,0 -1,1 -1,1 0,1 0,1 0,1 1,3 1,6 2,9 0,1 0,1 1,1 1,1 1,2 2,2 1,0 1,0 2,1 1,0 2,0 2,1 1,1 1,2 2,2 1,1 1,3 2,4 2,5 5,10 8,14 1,3 3,5 5,7 3,3 7,5 11,5 2,0 4,0 5,0 4,0 7,0 11,-1 5,0 9,-1 13,-3 3,-1 5,-2 8,-2 2,-1 5,-2 7,-3 4,-1 7,-4 9,-8 0,-2 1,-3 2,-5 1,-3 2,-6 2,-10 1,-3 2,-6 3,-9 1,-2 2,-4 3,-6 1,-1 3,-2 4,-3 2,-1 3,-1 4,-1 0,0 1,1 1,1 1,0 2,1 3,1 1,1 2,3 4,4 1,3 3,4 5,6 1,3 2,4 4,6 3,4 6,7 9,9 3,2 6,3 8,4 3,0 6,1 9,1 4,0 8,-1 11,-1 5,-1 11,-2 15,-3 3,-1 5,-2 8,-3 4,-2 7,-4 9,-8 1,-2 2,-4 3,-6 1,-3 2,-7 3,-10 1,-4 2,-7 3,-11 0,-2 1,-4 3,-6 0,1 1,0 1,-2z"/>
    <path class="fil19" d="M437 768c-14,4 -6,25 7,26 27,-9 87,-33 93,-36 7,-4 -80,5 -100,10z"/>
   </g>
  </g>
 </g>
</svg>
