<?xml version="1.0" encoding="UTF-8"?>
<!DOCTYPE svg PUBLIC "-//W3C//DTD SVG 1.1//EN" "http://www.w3.org/Graphics/SVG/1.1/DTD/svg11.dtd">
<!-- Creator: CorelDRAW X7 -->
<svg xmlns="http://www.w3.org/2000/svg" xml:space="preserve" width="8.5in" height="11in" version="1.1" style="shape-rendering:geometricPrecision; text-rendering:geometricPrecision; image-rendering:optimizeQuality; fill-rule:evenodd; clip-rule:evenodd"
viewBox="0 0 8500 11000"
 xmlns:xlink="http://www.w3.org/1999/xlink">
 <defs>
  <style type="text/css">
   <![CDATA[
    .fil6 {fill:#066938}
    .fil7 {fill:#109F3D}
    .fil8 {fill:#1861A9}
    .fil18 {fill:#1B1B1B}
    .fil16 {fill:#746458}
    .fil17 {fill:#754D24}
    .fil3 {fill:#788A28}
    .fil4 {fill:#A3AF32}
    .fil2 {fill:#A9937F}
    .fil11 {fill:#B4B4B4}
    .fil5 {fill:#C1292E}
    .fil14 {fill:#DDC6A7}
    .fil9 {fill:#E00825}
    .fil1 {fill:#E1CBAC}
    .fil12 {fill:#E52629}
    .fil13 {fill:#E7E6E6}
    .fil0 {fill:#F1E0C6}
    .fil15 {fill:#F2F2F2}
    .fil19 {fill:#F39323}
    .fil10 {fill:#F9B03D}
   ]]>
  </style>
 </defs>
 <g id="Layer_x0020_1">
  <metadata id="CorelCorpID_0Corel-Layer"/>
  <g id="_93299890720">
   <g>
    <g>
     <path class="fil0" d="M5434 8207c-129,-2 -259,-4 -389,-4 -93,0 -183,6 -276,6 -110,0 -220,2 -330,-2 -118,-4 -238,-11 -356,-21 -95,-8 -191,-22 -286,-34 -31,-4 -63,-10 -94,-17 -35,-8 -69,-24 -96,-48 -54,-43 -71,-98 -52,-163 10,-31 26,-59 44,-87 39,-53 86,-98 137,-139 111,-87 237,-144 370,-185 109,-34 219,-55 331,-71 126,-20 252,-22 378,-20 102,2 204,8 307,12 43,2 86,8 130,12 45,4 88,8 133,14 101,13 199,37 295,67 99,29 197,63 298,82 86,18 173,32 261,46 152,25 305,47 457,82 69,16 134,39 196,73 58,31 105,73 142,128 8,14 16,27 22,41 14,34 12,67 -8,97 -22,33 -51,57 -87,74 -90,46 -187,63 -287,71 -134,10 -268,6 -401,2 -105,-4 -209,-8 -313,-10 -179,-2 -352,-4 -526,-6 0,0 0,0 0,0z"/>
     <g>
      <ellipse class="fil1" cx="4923" cy="7676" rx="661" ry="150"/>
      <ellipse class="fil1" cx="6017" cy="7826" rx="421" ry="81"/>
     </g>
    </g>
    <g>
     <g>
      <path class="fil2" d="M5635 4683c14,-25 16,-53 22,-78 18,-97 20,-195 14,-293 -2,-20 -2,-38 -2,-57 0,-34 15,-60 43,-75 8,-4 16,-8 25,-12 65,-22 130,-37 197,-43 61,-6 110,35 116,96 6,45 -2,91 -15,136 -30,104 -67,206 -120,301 -4,8 -8,16 -12,23 -20,44 -40,89 -59,132 -4,8 -6,14 -4,22 8,20 4,39 -2,59 -8,28 -22,51 -38,73 -37,55 -76,108 -116,163 -4,6 -8,12 -13,18 4,4 7,8 11,10 26,23 36,51 24,84 -6,16 -12,32 -22,45 -19,32 -39,63 -63,91 -53,69 -108,138 -161,205 -4,6 -8,9 -12,15 20,44 16,87 0,128 -23,61 -49,122 -73,183 -5,16 -13,32 -21,49 8,6 16,10 21,14 24,16 32,40 22,67 -6,16 -14,30 -22,45 -29,50 -61,99 -88,148 -41,73 -81,148 -122,220 -2,4 -4,10 -8,16 35,20 39,53 37,89 -2,11 -2,23 -5,35 -16,83 -32,165 -48,248 -23,118 -43,236 -55,356 0,6 -2,14 -2,20 2,2 2,4 2,4 36,15 49,47 53,84 4,51 -2,101 -9,150 -8,49 -20,98 -30,147 -12,59 -49,95 -108,111 -49,11 -99,15 -150,5 -33,-5 -61,-21 -80,-49 -18,-23 -32,-49 -42,-76 -25,-75 -49,-148 -73,-223 -7,-23 -7,-45 2,-67 2,-4 2,-6 2,-10 4,-19 16,-33 34,-45 6,-4 12,-6 20,-10 -4,-25 -6,-53 -12,-78 -22,-103 -46,-205 -67,-307 -16,-71 -30,-144 -43,-215 -4,-17 -4,-37 -2,-57 2,-33 19,-57 47,-73 25,-15 55,-23 86,-27 26,-4 50,-6 77,-8 2,-24 6,-49 8,-73 4,-67 8,-136 14,-202 6,-67 12,-136 21,-203 8,-55 44,-83 99,-89 14,-2 29,-2 45,-2 2,-9 4,-19 8,-27 23,-97 47,-193 71,-289 4,-18 12,-38 19,-54 26,-55 65,-72 124,-61 6,2 10,2 18,4 4,-9 6,-19 10,-29 25,-83 51,-165 79,-248 4,-14 9,-26 17,-37 14,-28 38,-46 67,-52 12,-2 18,-7 22,-19 25,-71 41,-146 55,-221 6,-31 12,-63 20,-94 2,-12 6,-24 9,-34 20,-47 59,-68 111,-57 8,-7 15,-5 27,-2z"/>
      <g>
       <path class="fil3" d="M4649 4920c2,11 2,21 4,29 14,63 30,124 44,187 13,61 23,124 23,187 0,16 -2,29 -4,45 -2,6 -4,12 -8,18 -9,12 -23,14 -33,2 -6,-6 -10,-14 -12,-22 -14,-31 -25,-65 -39,-98 -24,-57 -53,-112 -91,-163 -4,-6 -10,-14 -17,-24 0,10 -2,14 0,20 6,70 9,141 17,210 10,95 18,189 14,285 0,12 -2,26 -4,38 0,6 -2,10 -4,16 -8,15 -25,17 -37,3 -2,-3 -6,-7 -8,-11 -32,-69 -65,-136 -96,-205 -24,-53 -42,-108 -46,-167 -2,-18 0,-36 2,-53 12,-93 26,-183 53,-272 67,-208 172,-397 313,-565 134,-157 291,-283 472,-381 81,-44 168,-77 258,-91 83,-14 167,-19 250,-2 20,4 37,10 59,16 -2,-4 -6,-8 -6,-10 -6,-14 -16,-20 -31,-20 -2,0 -6,0 -8,0 -34,-5 -49,-21 -51,-55 -2,-25 -6,-27 -32,-27 -12,0 -21,2 -33,2 -28,0 -40,-14 -38,-42 0,-3 0,-5 0,-11 -5,2 -9,2 -13,4 -40,17 -79,35 -120,53 -12,6 -24,12 -38,2 -12,-10 -10,-24 -4,-38 16,-37 32,-74 49,-112 2,-6 6,-14 10,-21 -8,2 -11,3 -17,5 -44,20 -83,44 -120,71 -2,2 -4,4 -6,4 -10,8 -20,10 -32,4 -12,-6 -14,-18 -12,-29 2,-14 6,-28 12,-48 -8,6 -14,10 -19,16 -30,26 -61,51 -91,77 -8,6 -16,14 -26,20 -19,9 -39,0 -39,-24 0,-16 2,-33 6,-49 4,-20 8,-40 12,-61 0,-4 2,-8 2,-16 -10,10 -16,16 -22,24 -51,61 -104,122 -155,183 -6,7 -12,15 -20,21 -8,8 -16,10 -28,6 -9,-4 -13,-14 -11,-27 6,-32 11,-65 19,-97 8,-35 18,-71 28,-106 -8,0 -14,6 -18,10 -75,53 -141,114 -208,175 -24,22 -50,45 -73,67 -6,6 -14,12 -22,16 -8,3 -16,3 -21,-2 -8,-6 -10,-14 -8,-24 2,-8 6,-16 8,-24 33,-80 72,-157 114,-234 4,-6 6,-12 8,-19 -6,3 -10,5 -16,9 -126,85 -240,185 -347,296 -21,21 -43,45 -64,66 -6,6 -12,12 -20,16 -8,6 -18,6 -26,2 -8,-6 -10,-14 -10,-23 0,-8 2,-14 4,-22 24,-89 59,-171 101,-254 2,-6 6,-12 10,-22 -8,4 -12,6 -16,10 -118,87 -228,185 -329,293 -10,12 -21,22 -31,34 -4,4 -8,8 -14,12 -14,6 -28,-2 -28,-18 0,-6 2,-10 2,-16 16,-73 36,-145 59,-218 2,-6 4,-12 2,-20 -5,4 -11,8 -17,12 -46,29 -89,59 -134,88 -8,6 -18,12 -28,16 -23,12 -41,-2 -39,-27 0,-2 0,-6 0,-10 -14,10 -28,18 -39,25 -8,6 -16,12 -24,14 -6,2 -14,2 -18,-2 -6,-4 -8,-12 -4,-19 4,-8 8,-16 14,-22 32,-37 67,-73 106,-100 63,-48 126,-97 195,-138 189,-114 388,-205 606,-244 103,-18 207,-28 311,-20 268,18 512,102 720,276 75,61 140,130 195,210 4,4 6,8 10,14 -10,-77 -22,-152 -32,-228 -7,6 -15,12 -21,17 -20,14 -40,8 -45,-15 -2,-10 -2,-22 -2,-34 -2,-43 -2,-86 -2,-128 0,-6 0,-10 -2,-19 -12,8 -22,15 -32,21 -10,8 -18,16 -27,24 -10,8 -22,12 -34,6 -12,-6 -16,-16 -14,-28 2,-17 4,-37 6,-55 4,-29 8,-59 14,-90 -4,4 -8,6 -12,8 -16,13 -31,27 -47,43 -16,16 -35,21 -57,12 -18,-10 -30,-32 -26,-55 2,-14 6,-30 10,-42 20,-53 47,-102 81,-149 25,-36 53,-69 86,-99 81,-71 191,-78 282,-19 82,55 143,126 179,218 29,79 51,157 71,240 0,2 2,6 2,8 0,10 0,20 -10,24 -10,3 -16,0 -24,-6 -12,-10 -21,-20 -33,-28 -10,-8 -22,-16 -36,-27 6,27 12,49 18,72 6,34 12,67 18,101 0,6 2,12 0,17 -2,24 -20,34 -40,20 -9,-8 -19,-18 -29,-25 -6,-4 -10,-10 -18,-12 2,15 4,31 6,49 2,14 4,29 4,43 0,20 -8,26 -28,28 6,45 12,88 18,135 6,-5 10,-11 16,-15 69,-73 142,-142 224,-201 75,-53 154,-96 240,-122 61,-18 122,-22 185,-12 55,8 105,34 148,69 47,39 86,87 120,140 61,96 120,195 173,295 87,169 171,340 258,512 4,7 8,17 12,25 2,6 2,12 3,18 0,8 -3,16 -11,19 -8,4 -16,2 -22,-1 -6,-6 -12,-14 -18,-22 -8,-12 -15,-26 -25,-39 -6,25 -12,49 -18,72 -4,12 -6,26 -22,28 -15,2 -23,-12 -27,-24 -10,-25 -18,-53 -26,-78 -12,-34 -21,-65 -33,-97 -2,-4 -4,-8 -10,-12 -2,14 -6,28 -8,42 -4,21 -8,41 -12,63 -2,7 -4,13 -6,21 -4,12 -11,18 -21,18 -10,0 -16,-8 -20,-20 -2,-8 -2,-13 -4,-21 -14,-83 -29,-164 -43,-246 -2,-16 -8,-32 -16,-48 -4,10 -6,18 -10,28 -2,6 -4,14 -8,20 -7,13 -23,12 -31,0 -4,-6 -6,-12 -8,-18 -6,-22 -12,-43 -20,-65 0,4 -2,8 -2,12 -4,65 -7,130 -11,193 0,8 -2,15 -6,23 -4,6 -12,10 -18,10 -6,0 -14,-6 -16,-12 -4,-9 -4,-19 -4,-31 -2,-34 0,-69 -4,-102 -6,-73 -25,-142 -47,-211 -12,-37 -27,-73 -41,-110 -2,-6 -6,-12 -12,-16 0,16 2,30 2,45 2,48 2,95 4,140 0,4 0,10 -2,14 -2,8 -6,14 -16,16 -10,2 -15,-4 -19,-12 -2,-4 -4,-8 -4,-12 -26,-85 -69,-161 -120,-234 -8,-10 -14,-20 -24,-28 0,4 2,10 2,14 12,67 26,134 37,201 2,6 2,12 0,17 -2,18 -19,26 -33,14 -6,-4 -12,-10 -16,-18 -23,-35 -45,-68 -69,-104 -6,-10 -12,-19 -17,-27 -2,0 -2,0 -4,2 0,9 2,19 2,29 4,47 9,93 13,140 0,8 0,16 -2,23 -2,10 -9,16 -19,18 -10,0 -16,-4 -22,-12 -2,-6 -4,-11 -8,-17 -14,-36 -29,-69 -43,-105 -2,-4 -4,-7 -10,-9 2,19 4,41 8,61 4,25 6,51 10,76 0,4 0,6 0,10 0,12 -6,20 -14,22 -10,2 -18,-2 -24,-10 -3,-8 -7,-16 -11,-24 -18,-35 -38,-71 -55,-104 -2,-4 -4,-6 -10,-8 2,8 6,16 6,22 2,10 6,19 6,29 0,22 -18,32 -38,22 -6,-4 -12,-8 -18,-12 -29,-22 -59,-43 -88,-65 -2,16 -4,30 -6,45 24,18 51,38 77,58 17,13 37,27 55,43 45,43 92,86 136,130 106,106 185,230 244,368 43,98 80,198 112,303 17,57 25,116 27,175 2,47 0,94 0,139 0,14 -4,28 -8,42 -2,12 -11,19 -23,19 -12,0 -22,-7 -26,-21 -4,-12 -4,-24 -8,-38 -2,-5 -2,-11 -4,-17 -6,10 -6,23 -7,35 -4,26 -10,49 -28,69 -2,2 -4,6 -6,8 -24,23 -53,20 -67,-12 -16,-35 -21,-73 -27,-110 -6,-47 -8,-95 -12,-142 0,-4 0,-8 -2,-18 -6,8 -8,12 -12,16 -8,10 -16,22 -26,30 -25,23 -59,15 -74,-14 -4,-10 -8,-20 -10,-30 -6,-33 -10,-68 -18,-104 -12,-63 -37,-122 -67,-179 -12,-22 -25,-43 -41,-63 0,4 2,10 2,14 18,61 33,122 51,183 2,10 4,22 4,33 -2,22 -22,32 -39,22 -10,-6 -18,-16 -28,-24 -14,-11 -25,-25 -41,-37 2,6 4,12 6,16 47,106 76,218 104,332 2,8 4,18 2,28 -2,18 -16,25 -32,18 -7,-4 -13,-8 -21,-14 -18,-14 -34,-28 -55,-40 2,6 4,12 6,18 15,47 31,93 47,140 2,8 4,18 6,27 4,28 -14,42 -40,32 -19,-8 -37,-18 -57,-28 -4,-2 -10,-4 -17,-8 2,12 4,22 6,32 11,45 23,90 35,136 2,10 4,17 4,27 -2,20 -18,30 -36,22 -13,-6 -25,-16 -39,-24 -20,-12 -20,-12 -47,-17 -12,17 -24,35 -36,55 -9,15 -21,33 -33,49 -12,14 -22,18 -31,14 -10,-4 -14,-14 -10,-34 2,-14 6,-27 10,-43 -6,4 -8,8 -12,10 -26,27 -49,55 -75,82 -10,10 -22,18 -33,26 -8,6 -20,6 -28,0 -10,-8 -10,-18 -6,-28 8,-17 16,-35 26,-53 21,-41 43,-80 63,-122 11,-27 21,-55 31,-82 2,-6 4,-14 2,-24 -8,6 -16,12 -22,18 -13,10 -25,19 -39,29 -8,4 -16,8 -24,10 -19,4 -33,-10 -31,-29 2,-12 6,-22 10,-32 10,-20 21,-39 31,-59 10,-22 20,-43 32,-65 -2,0 -2,-2 -4,-2 -6,4 -10,10 -16,14 -20,20 -37,39 -57,59 -14,14 -29,26 -43,37 -6,4 -14,8 -22,12 -18,6 -33,-6 -31,-25 2,-10 6,-20 9,-28 14,-24 28,-47 42,-69 29,-47 59,-92 86,-140 18,-27 30,-59 46,-88 2,-4 2,-8 2,-16 -8,4 -14,10 -22,14 -10,6 -20,12 -30,16 -29,10 -51,-8 -47,-40 2,-13 8,-27 12,-39 14,-35 30,-71 45,-108 4,-8 6,-18 10,-30 -8,6 -12,10 -16,12 -15,16 -31,33 -47,49 -12,12 -23,22 -37,34 -8,6 -16,10 -24,13 -25,10 -43,-7 -37,-33 2,-12 6,-22 12,-31 11,-26 25,-50 37,-75 33,-65 67,-128 90,-199 10,-28 14,-57 20,-85 0,-4 0,-7 -4,-11 -6,6 -10,11 -16,17 -19,24 -39,46 -61,67 -11,12 -23,20 -37,28 -24,12 -43,-2 -43,-30 0,-14 4,-27 8,-41 15,-51 31,-102 47,-154 10,-33 14,-68 22,-102 1,-8 0,-16 0,-27 -6,5 -10,7 -14,11 -12,12 -24,24 -38,34 -11,10 -25,14 -41,6 -14,-8 -20,-22 -18,-38 4,-35 6,-69 10,-104 2,-24 6,-47 6,-73 -4,6 -8,12 -12,18 -53,90 -94,185 -124,287 -2,8 -4,16 -8,24 -9,22 -23,27 -45,18 -2,0 -4,-2 -6,-2 -4,13 -8,25 -12,37 -9,37 -17,75 -27,114 -2,6 -4,14 -6,20 -10,21 -31,27 -51,14 -4,-2 -6,-6 -12,-10 -2,12 -6,21 -8,31 -14,71 -25,140 -39,211 -2,8 -2,17 -6,25 -10,30 -37,40 -63,24 -10,-6 -20,-16 -30,-26 -2,8 -5,16 -7,24 -30,89 -50,177 -65,270 -2,9 -4,19 -10,29 -6,14 -16,22 -30,22 -15,0 -25,-8 -31,-20 -6,-18 -10,-35 -12,-53 -2,-10 -2,-22 -4,-32 -2,0 -4,0 -4,0 -29,14 -47,6 -53,-27 -2,-20 -2,-40 0,-59 4,-42 10,-83 14,-124 -20,-16 -24,-26 -12,-51 22,-49 43,-99 67,-146 2,-6 6,-10 8,-18 -16,-11 -12,-27 -6,-43 18,-39 41,-75 67,-110 6,-6 10,-14 15,-22 -1,-2 -3,-4 -5,-6 -16,-13 -18,-29 -10,-49 4,-10 10,-19 15,-27 50,-79 105,-152 170,-221 27,-29 57,-59 84,-88 4,-4 6,-8 12,-14 -25,2 -37,-12 -45,-32 -6,-13 -12,-27 -20,-41 -4,-6 -6,-12 -12,-21 -4,9 -7,15 -11,23 -16,39 -30,77 -46,116 -4,10 -8,22 -13,32 -8,13 -18,23 -34,23 -18,-2 -25,-13 -29,-27 -6,-26 -14,-49 -20,-75 -2,-8 -4,-14 -8,-22 -2,4 -2,8 -4,14 -6,59 -10,118 -18,177 -4,38 -11,75 -19,112 -2,14 -10,28 -18,40 -16,21 -39,19 -49,-4 -6,-14 -10,-28 -14,-44 -8,-27 -14,-53 -22,-80 -9,-40 -27,-75 -51,-106 -4,-6 -8,-10 -16,-18 0,12 0,21 0,29 4,61 10,122 14,181 4,71 2,142 -10,211 -2,10 -4,18 -7,25 -10,18 -30,18 -42,0 -4,-7 -8,-17 -10,-25 -11,-45 -23,-89 -35,-134 -10,-35 -22,-71 -41,-102 -4,-8 -8,-14 -18,-20 6,26 10,49 16,75 13,63 23,128 29,191 0,12 2,21 0,33 0,14 -6,26 -19,30 -12,4 -24,0 -32,-14 -10,-16 -20,-34 -29,-49 -16,-24 -32,-49 -48,-73 -6,-8 -13,-16 -23,-22 0,18 0,36 0,55 2,46 8,93 10,138 2,20 0,41 -2,61 0,12 -8,24 -20,26 -14,4 -24,-4 -32,-14 -5,-8 -11,-18 -17,-28 -20,-35 -40,-70 -59,-104 -6,-10 -14,-20 -20,-27 -2,0 -2,2 -4,2 2,7 4,13 6,21 29,91 59,179 87,270 17,59 31,122 43,183 12,61 14,124 6,187 -2,13 -6,25 -10,39 -2,8 -10,14 -20,16 -10,0 -16,-6 -19,-14 -6,-14 -12,-30 -16,-45 -16,-59 -32,-118 -49,-177 -14,-52 -34,-101 -59,-148 -24,-43 -52,-81 -89,-110 0,-32 -8,-39 -24,-41z"/>
      </g>
     </g>
     <g>
      <g>
       <path class="fil4" d="M6273 7306l0 486c0,16 -12,28 -28,28l-456 0c-16,0 -28,-12 -28,-28l0 -486c0,-15 12,-27 28,-27l456 0c14,-2 28,12 28,27z"/>
       <path class="fil3" d="M6310 7226l0 145c0,4 -2,6 -6,6l-574 0c-4,0 -6,-2 -6,-6l0 -145c0,-4 2,-6 6,-6l574 0c4,0 6,4 6,6z"/>
      </g>
      <polygon class="fil5" points="6273,7527 6082,7527 6082,7377 6082,7277 6082,7220 5950,7220 5950,7277 5950,7377 5950,7527 5761,7527 5761,7658 5950,7658 5950,7820 6082,7820 6082,7658 6273,7658 "/>
     </g>
     <g>
      <g>
       <g>
        <path class="fil6" d="M7158 3816c-10,-59 -27,-116 -57,-168 -41,-68 -108,-96 -185,-104 -8,0 -24,4 -29,6 13,12 47,45 65,69 5,2 21,6 27,10 26,12 47,31 61,57 8,18 16,33 22,51 25,67 31,138 29,209 -2,66 -10,131 -19,196 -22,128 -44,256 -59,386 -4,28 -12,55 -20,83 -4,13 -12,27 -20,39 -16,22 -33,24 -55,6 -10,-10 -20,-20 -29,-30 -10,-11 -20,-23 -32,-33 -31,-28 -71,-37 -110,-26 -53,14 -91,50 -114,97 -12,23 -20,47 -26,73 -23,90 -45,181 -67,271 -8,32 -19,63 -31,95 -8,17 -18,35 -36,49 -6,-8 -9,-16 -13,-22 -10,-18 -20,-35 -32,-53 -25,-41 -65,-71 -112,-83 -24,-6 -47,-8 -73,-10 -33,-1 -67,-3 -100,-5 -63,-4 -104,-36 -122,-95 -2,-8 -6,-16 -8,-25 -6,-30 -12,-59 -16,-91 -6,-29 -10,-59 -23,-88 -22,-46 -57,-71 -107,-81 -23,-4 -45,-2 -67,4 -68,16 -125,47 -179,92 -39,34 -72,73 -104,114 -45,61 -84,126 -122,193 -63,112 -126,225 -191,337 -27,47 -57,94 -86,141 -18,28 -38,53 -61,75 -36,30 -63,28 -91,-10 -14,-19 -25,-41 -35,-63 -24,-53 -34,-108 -40,-165 -7,-73 -15,-144 -21,-216 -8,-124 -16,-250 -24,-374 -4,-71 -8,-142 -19,-213 -8,-45 -20,-88 -42,-128 -47,-84 -141,-128 -236,-110 -26,4 -49,16 -75,26 -19,6 -37,13 -57,19 -33,8 -59,-2 -82,-27 -16,-18 -26,-39 -32,-61 -10,-38 -14,-77 -16,-116 -4,-97 -6,-191 -15,-287 -6,-54 -18,-107 -36,-158 -19,-55 -51,-104 -100,-140 -14,-9 -32,-19 -47,-27 -14,-6 -32,-8 -48,-4 -3,2 -9,6 -9,10 0,4 4,8 7,12 2,2 4,2 8,3 55,24 93,65 118,119 14,27 24,57 32,84 22,81 25,165 27,250 2,57 2,112 4,169 2,42 8,81 24,120 10,28 24,53 45,73 34,34 75,49 122,39 24,-4 47,-13 69,-21 18,-6 34,-14 51,-20 79,-24 154,12 187,87 10,21 16,45 22,71 14,66 16,135 19,202 4,75 6,148 10,223 6,92 14,184 22,275 6,65 14,130 28,195 11,55 29,108 59,157 13,24 29,43 49,61 43,38 94,43 141,12 18,-12 36,-28 52,-43 23,-28 45,-55 63,-87 70,-120 139,-240 208,-360 47,-81 95,-161 142,-240 29,-47 63,-91 102,-128 43,-41 93,-73 150,-90 17,-6 35,-8 55,-6 29,4 51,17 61,45 2,8 6,16 8,24 3,21 7,43 11,66 8,42 16,83 32,120 31,73 88,115 167,122 43,4 87,6 130,8 49,4 90,22 116,69 8,14 18,28 28,42 7,11 17,23 27,33 28,26 55,28 87,4 19,-16 35,-35 47,-57 14,-30 27,-57 35,-89 22,-74 40,-151 59,-228 10,-39 20,-79 32,-118 10,-31 31,-53 59,-69 25,-14 47,-10 67,10 10,8 16,20 25,28 14,13 26,27 42,37 47,33 110,24 145,-24 14,-17 24,-37 32,-57 14,-31 19,-65 23,-100 10,-65 20,-130 30,-193 18,-104 41,-208 51,-315 4,-69 8,-139 -4,-210z"/>
       </g>
       <g>
        <path class="fil7" d="M4771 4805c-11,4 -25,4 -37,2 -10,-2 -20,-4 -31,-5 -8,-2 -18,-4 -28,-6 -18,-4 -35,-10 -51,-18 -6,-2 -12,-6 -16,-10 -12,-10 -10,-27 0,-37 4,-4 8,-8 14,-10 8,-4 14,-8 22,-12 23,-14 49,-22 76,-28 12,-1 24,-3 36,-3 15,0 27,7 35,21 2,4 4,8 6,12 4,10 6,20 8,31 0,8 0,16 0,24 0,2 0,2 0,4 -6,16 -16,30 -34,35z"/>
        <path class="fil7" d="M7068 4066c-14,2 -26,0 -38,-6 -10,-4 -17,-8 -29,-12 -8,-4 -16,-8 -26,-12 -16,-8 -31,-18 -47,-27 -6,-4 -10,-8 -14,-14 -10,-12 -4,-30 8,-38 4,-2 10,-5 16,-7 8,-2 15,-4 23,-8 26,-10 53,-12 81,-12 12,0 24,2 35,4 16,4 26,14 30,27 2,4 2,8 4,12 2,10 2,22 0,32 0,8 -2,15 -4,23 0,2 0,2 -2,4 -6,20 -20,32 -37,34z"/>
        <path class="fil7" d="M6021 4878c8,-10 16,-19 27,-25 8,-6 18,-10 28,-16 8,-4 16,-8 26,-12 15,-8 33,-14 51,-20 6,-2 11,-2 17,-2 16,0 26,16 24,28 0,6 -2,12 -4,16 -2,8 -6,15 -10,23 -10,26 -23,50 -41,69 -8,10 -16,18 -26,26 -11,10 -25,12 -41,6 -4,-2 -8,-4 -12,-6 -10,-4 -18,-12 -25,-20 -6,-6 -10,-12 -16,-18 0,-2 -2,-2 -2,-4 -6,-11 -6,-29 4,-45z"/>
        <path class="fil8" d="M4624 4365c2,12 2,25 0,37 -2,10 -6,20 -10,32 -2,7 -6,17 -8,25 -6,18 -14,34 -22,49 -3,6 -5,10 -11,16 -12,10 -30,8 -38,-2 -4,-4 -6,-10 -8,-14 -4,-8 -5,-15 -9,-23 -12,-26 -18,-51 -20,-79 -2,-12 -2,-24 0,-37 2,-16 10,-26 24,-34 3,-2 7,-4 11,-4 10,-4 22,-4 32,-4 8,0 16,0 23,2 2,0 2,0 4,0 16,6 28,18 32,36z"/>
        <path class="fil8" d="M7077 4607c14,0 26,4 38,12 8,5 18,9 27,15 6,4 16,10 24,16 14,10 29,22 41,35 4,4 8,10 12,16 8,14 0,30 -12,36 -6,2 -10,4 -15,4 -8,1 -16,1 -24,3 -28,4 -53,4 -81,-2 -12,-1 -23,-5 -35,-9 -14,-6 -22,-18 -26,-32 0,-4 -2,-8 -2,-12 0,-9 2,-21 4,-31 2,-8 4,-14 8,-22 0,-2 2,-2 2,-4 6,-19 22,-27 39,-25z"/>
        <path class="fil8" d="M5602 4833c12,4 23,10 33,20 8,6 14,13 22,21 6,6 12,14 20,20 11,14 23,28 33,43 4,6 6,12 8,18 4,16 -8,29 -20,31 -6,0 -12,2 -16,0 -7,0 -15,-2 -23,-2 -28,-1 -53,-9 -79,-19 -12,-4 -22,-10 -31,-18 -12,-10 -18,-22 -18,-37 0,-4 0,-8 2,-12 2,-10 6,-20 12,-30 4,-6 8,-13 11,-19 0,-2 2,-2 2,-4 10,-12 28,-18 44,-12z"/>
        <path class="fil9" d="M4213 4256c-12,4 -26,6 -38,4 -10,-2 -19,-4 -31,-5 -8,-2 -18,-4 -28,-6 -18,-4 -35,-10 -51,-16 -6,-2 -12,-6 -16,-10 -12,-10 -12,-28 -2,-37 4,-4 8,-8 14,-10 8,-4 14,-8 22,-12 23,-14 49,-24 75,-30 11,-1 23,-3 35,-3 16,0 27,7 35,19 2,4 4,8 6,12 4,10 8,20 8,32 0,7 0,15 0,23 0,2 0,2 0,4 -2,18 -14,32 -29,35z"/>
        <path class="fil9" d="M5169 5345c-12,-4 -24,-12 -32,-20 -7,-8 -13,-14 -21,-24 -6,-6 -12,-13 -18,-21 -12,-14 -22,-30 -31,-46 -4,-6 -6,-11 -6,-17 -4,-16 8,-30 21,-30 6,0 12,0 16,0 8,0 16,2 24,4 27,2 53,12 76,24 12,6 22,12 32,19 12,10 18,22 16,38 0,4 -2,8 -2,12 -2,9 -8,19 -12,29 -4,6 -8,12 -14,18 0,2 -2,2 -2,2 -12,14 -29,17 -47,12z"/>
        <path class="fil9" d="M6568 4746c-12,-4 -24,-7 -34,-17 -7,-6 -15,-14 -23,-22 -6,-6 -14,-12 -20,-20 -12,-13 -25,-25 -35,-41 -4,-6 -6,-10 -8,-16 -4,-15 6,-29 18,-33 5,-2 11,-2 15,-2 8,0 16,0 24,0 27,0 53,6 79,16 11,4 23,8 33,15 14,8 20,20 20,36 0,4 0,8 -2,14 -2,9 -4,21 -10,29 -4,8 -8,14 -12,20 0,2 -2,2 -2,4 -8,15 -25,21 -43,17z"/>
        <path class="fil10" d="M4189 3774c-10,8 -22,14 -35,16 -10,2 -20,4 -32,6 -8,2 -18,2 -27,4 -18,2 -36,2 -56,2 -5,0 -11,-2 -17,-4 -16,-6 -20,-22 -14,-35 2,-6 6,-10 8,-14 6,-6 12,-12 16,-20 17,-21 37,-39 61,-53 9,-6 21,-12 33,-16 14,-6 28,-2 41,6 4,2 6,6 10,8 8,8 14,16 18,26 4,6 6,13 8,21 0,2 0,2 2,4 4,22 -2,38 -16,49z"/>
        <path class="fil10" d="M4817 5398c-12,6 -24,10 -38,10 -10,0 -19,0 -31,0 -8,0 -18,0 -28,-2 -17,-2 -35,-4 -53,-8 -6,-2 -12,-4 -18,-8 -13,-8 -15,-26 -7,-38 3,-4 7,-7 11,-11 6,-6 14,-10 20,-16 20,-18 45,-30 71,-39 12,-4 23,-8 35,-10 16,-2 28,2 38,13 2,4 6,6 8,10 5,10 9,20 11,30 2,8 4,16 4,21 0,2 0,2 0,4 2,20 -8,36 -23,44z"/>
        <path class="fil10" d="M6412 5209c-9,10 -19,16 -33,19 -10,4 -20,6 -32,10 -7,2 -17,4 -27,6 -18,4 -36,6 -53,8 -6,0 -12,0 -18,-2 -16,-4 -22,-20 -18,-33 2,-6 4,-10 8,-16 4,-6 10,-14 14,-20 14,-23 33,-41 55,-59 10,-8 20,-14 32,-19 13,-6 27,-6 41,2 4,1 8,3 10,7 8,6 15,16 21,24 4,6 8,14 12,20 0,2 2,2 2,4 4,19 -2,37 -14,49z"/>
       </g>
       <g>
        <path class="fil11" d="M4862 4766c-2,2 -6,2 -8,2 -16,2 -31,2 -47,2 -2,0 -4,0 -6,-2 0,-2 0,-2 0,-4 0,-8 0,-16 0,-23 0,-10 -4,-22 -8,-32 2,-2 6,-4 10,-4 6,0 10,-2 16,-2 9,-2 21,-4 31,-4 6,0 10,2 12,8 4,14 6,30 4,43 0,2 0,6 0,8 0,4 0,6 -4,8z"/>
        <path class="fil11" d="M7166 4044c-2,0 -6,0 -8,0 -16,0 -31,-4 -47,-8 -2,0 -4,-2 -6,-2 0,-2 0,-2 2,-4 2,-8 4,-16 4,-23 2,-10 2,-22 0,-32 2,-2 6,-2 10,-2 6,0 10,0 15,0 10,0 22,2 32,2 6,0 10,4 10,10 0,16 0,29 -4,43 0,2 -2,6 -2,8 -2,6 -4,8 -6,8z"/>
        <path class="fil11" d="M5976 4967c2,-2 2,-4 4,-6 9,-12 21,-22 35,-32 2,-2 4,-2 6,-2 0,2 2,2 2,4 4,6 10,12 16,18 7,8 15,14 25,20 0,4 -2,6 -4,10 -4,4 -6,7 -10,11 -8,8 -13,16 -21,24 -4,4 -8,6 -14,2 -12,-10 -24,-18 -32,-31 -2,-2 -3,-4 -3,-6 -6,-6 -6,-8 -4,-12z"/>
        <path class="fil11" d="M4592 4270c0,2 2,6 2,8 2,16 0,32 -2,47 0,2 0,4 -2,6 -2,0 -2,0 -4,0 -7,-2 -15,-2 -23,-2 -10,0 -22,2 -32,4 -2,-2 -4,-6 -4,-10 0,-6 0,-9 -2,-15 0,-10 -2,-22 -2,-32 0,-6 2,-10 10,-10 14,-2 30,-4 46,0 2,0 5,0 7,0 2,0 6,0 6,4z"/>
        <path class="fil11" d="M6977 4611c2,0 6,0 8,0 16,4 29,8 45,13 2,0 4,2 6,4 0,2 -2,2 -2,4 -4,8 -6,14 -8,22 -2,10 -4,22 -4,31 -2,2 -6,2 -10,0 -5,-2 -9,-2 -15,-4 -10,-1 -22,-3 -32,-7 -6,-2 -10,-6 -8,-12 2,-14 4,-30 12,-43 2,-2 2,-4 2,-8 2,2 4,0 6,0z"/>
        <path class="fil11" d="M5505 4815c2,0 6,2 8,2 14,6 28,16 42,24 1,2 3,2 3,4 0,2 -2,2 -2,4 -3,6 -9,12 -11,19 -6,10 -10,20 -12,30 -2,2 -6,0 -10,-2 -4,-2 -10,-4 -14,-6 -10,-4 -19,-10 -29,-14 -6,-2 -8,-6 -6,-13 6,-14 12,-28 21,-40 2,-2 4,-4 4,-6 0,-2 2,-2 6,-2z"/>
        <path class="fil11" d="M4303 4215c-2,2 -6,2 -8,2 -15,2 -31,4 -47,4 -2,0 -4,0 -6,-2 0,-2 0,-2 0,-4 0,-8 0,-16 0,-23 -2,-10 -4,-22 -8,-32 2,-2 6,-4 10,-4 6,0 10,-2 16,-2 10,-2 21,-4 31,-6 6,-2 10,2 12,8 4,14 6,30 6,43 0,2 0,6 0,8 -2,4 -4,8 -6,8z"/>
        <path class="fil11" d="M5267 5366c-2,0 -6,-2 -8,-2 -13,-8 -25,-17 -39,-25 -2,-2 -4,-4 -4,-4 2,0 2,-2 2,-2 4,-6 10,-12 14,-18 6,-10 10,-20 12,-29 2,0 6,0 9,1 4,2 10,4 14,8 10,6 20,10 28,16 6,4 8,8 4,14 -6,14 -12,27 -24,37 -2,2 -4,4 -4,6 0,-2 -2,0 -4,-2z"/>
        <path class="fil11" d="M6668 4758c-2,0 -6,-2 -8,-2 -13,-6 -27,-14 -41,-21 -2,-2 -4,-2 -4,-4 0,-2 2,-2 2,-4 4,-6 8,-14 12,-20 4,-10 8,-20 10,-29 2,-2 6,0 10,0 3,2 9,3 13,5 10,4 20,8 30,12 6,2 8,6 6,12 -4,14 -10,28 -18,39 -2,2 -2,4 -4,6 -4,6 -6,8 -8,6z"/>
        <path class="fil11" d="M4258 3704c-2,2 -4,4 -6,5 -14,8 -28,14 -43,20 -2,0 -4,2 -6,2 0,-2 0,-2 -2,-4 -2,-8 -6,-14 -8,-21 -4,-10 -10,-18 -18,-26 0,-2 4,-6 8,-8 4,-2 8,-6 14,-8 10,-6 18,-10 27,-16 6,-3 10,-1 14,4 8,12 16,26 20,40 0,2 2,4 2,8 2,0 2,2 -2,4z"/>
        <path class="fil11" d="M4899 5343c-2,2 -4,2 -8,4 -15,5 -29,7 -45,9 -2,0 -4,0 -6,0 0,-2 0,-2 0,-4 -2,-7 -2,-15 -4,-21 -2,-10 -6,-20 -11,-30 2,-2 3,-4 7,-6 4,-2 10,-4 14,-6 10,-3 20,-5 32,-9 6,-2 9,0 11,6 6,13 12,27 12,43 0,2 0,6 2,8 0,2 0,4 -4,6z"/>
        <path class="fil11" d="M6475 5132c-2,2 -4,4 -6,6 -11,10 -27,16 -41,24 -2,2 -4,2 -6,2 0,-2 0,-2 -2,-4 -4,-8 -6,-14 -12,-20 -5,-10 -11,-18 -21,-24 0,-4 2,-6 6,-8 4,-2 8,-5 12,-9 7,-6 17,-12 25,-18 6,-4 10,-4 14,2 10,12 18,23 23,37 0,2 2,4 4,8 6,-2 6,2 4,4z"/>
       </g>
      </g>
      <g>
       <path class="fil12" d="M6170 2976c-4,2 -7,4 -11,4 -50,21 -79,37 -132,41l-2 0c-16,2 -34,0 -53,0l-4 0c-57,-8 -73,-26 -120,2 -53,29 -146,55 -209,88 -8,4 -16,8 -23,10l0 0c-32,0 -61,0 -87,8 0,0 0,0 -2,0 -26,4 -57,14 -94,43 -71,51 -99,122 -83,181 6,24 -4,48 -22,63 -65,55 -147,242 -161,240 -39,-6 -67,-41 -57,-80 2,-6 4,-12 4,-18 88,-307 120,-323 145,-425 26,-102 46,-275 240,-266 195,10 162,-92 300,-96 139,-2 340,142 371,205z"/>
       <path class="fil13" d="M5114 3776c-30,2 -40,-35 -85,-59 -45,-23 -2,-92 24,-110 8,-6 14,-10 19,-12 30,-13 52,-9 63,-2l0 0c6,4 10,8 10,10 4,8 34,18 49,4 18,-14 34,2 42,75 10,75 -93,92 -122,94z"/>
       <path class="fil13" d="M6403 3225c-91,36 -107,26 -164,-15 -57,-42 -102,-73 -163,-34 -59,40 -35,59 -128,34 -92,-26 -87,23 -146,55 -59,31 -92,47 -131,47 -38,0 -32,35 -73,57 -42,22 -136,75 -199,32 -14,-10 -26,-22 -33,-36 -38,-61 -14,-153 68,-212 40,-28 69,-40 95,-44 0,0 0,0 2,0 33,-4 59,0 86,-7l0 0c8,-2 16,-4 24,-10 63,-34 156,-59 209,-89 49,-27 63,-10 120,-2l4 0c2,0 6,0 9,2 14,2 30,0 44,0l2 0c53,-4 82,-22 132,-41 3,-2 7,-4 11,-4 48,-18 89,37 122,67 34,27 53,16 103,8 49,-12 94,157 6,192z"/>
      </g>
     </g>
    </g>
   </g>
   <g>
    <g>
     <path class="fil0" d="M3831 7198c-150,136 -2218,155 -2412,-2 -134,-138 116,-309 259,-332 144,-26 150,-85 252,-97 42,-4 95,6 152,20 86,21 179,51 252,53 98,4 596,-8 844,-20 57,-2 102,-6 124,-8 120,-11 169,59 271,142 106,83 323,179 258,244z"/>
     <path class="fil14" d="M3203 6877c0,111 -265,199 -592,199 -327,0 -592,-88 -592,-199 0,-31 21,-63 63,-88 86,21 179,51 252,53 98,4 596,-8 844,-20 17,16 25,36 25,55z"/>
    </g>
    <path class="fil0" d="M2737 5892c114,-56 191,-172 191,-307 0,-189 -154,-341 -341,-341 -189,0 -340,154 -340,341 0,141 87,261 209,314 -237,67 -408,284 -408,542 0,310 252,562 563,562 311,0 563,-252 563,-562 0,-270 -187,-492 -437,-549z"/>
    <g>
     <path class="fil15" d="M2825 5339c-55,21 -64,15 -98,-10 -35,-24 -63,-43 -98,-20 -36,24 -22,36 -79,20 -57,-16 -53,14 -89,33 -35,20 -57,30 -78,30 -22,0 -18,21 -44,35 -25,14 -82,45 -120,20 -7,-6 -15,-14 -19,-22 -24,-37 -8,-92 41,-130 24,-17 41,-23 57,-25 0,0 0,0 0,0 20,-2 36,0 51,-4l0 0c4,-2 10,-2 14,-6 37,-20 95,-35 126,-53 30,-16 37,-6 73,0l2 0c2,0 4,0 6,0 8,0 17,0 25,0l0 0c32,-2 49,-14 81,-26 2,0 4,-2 8,-2 29,-10 53,24 73,42 19,17 31,9 63,4 33,-8 61,94 5,114z"/>
     <path class="fil12" d="M2686 5177c-2,0 -4,2 -8,2 -30,12 -47,24 -81,26l0 0c-10,0 -19,0 -31,0l-2 0c-36,-6 -44,-16 -73,0 -32,18 -89,33 -126,53 -4,2 -10,4 -14,6l0 0c-19,0 -37,0 -51,4 0,0 0,0 0,0 -16,2 -33,8 -57,25 -51,38 -65,93 -41,130 -44,38 -105,77 -101,160 0,4 0,8 0,9 -11,-5 -33,-11 -63,2 2,-17 6,-39 14,-66 53,-185 73,-195 89,-258 15,-63 27,-167 145,-160 118,6 97,-57 181,-57 79,0 201,87 219,124z"/>
     <path class="fil15" d="M2027 5716c-30,2 -42,-35 -87,-59 -45,-23 -2,-94 24,-112 8,-6 13,-10 19,-12 32,-15 53,-9 63,-2l0 0c6,4 10,8 12,10 4,8 34,18 51,4 18,-14 34,2 42,77 9,75 -97,92 -124,94z"/>
    </g>
    <circle class="fil16" cx="2509" cy="5490" r="37"/>
    <circle class="fil16" cx="2723" cy="5465" r="37"/>
    <g>
     <path class="fil16" d="M2556 5797c51,34 142,37 181,-10 14,-17 -24,-33 -37,-15 -24,29 -83,21 -113,1 -21,-11 -51,10 -31,24l0 0z"/>
    </g>
    <g>
     <path class="fil17" d="M3878 5848c-104,-27 -214,-35 -315,-8 22,-15 44,-31 63,-51 30,-29 44,-65 53,-104 0,0 0,0 0,-2 30,-69 113,-98 174,-132 19,-10 2,-41 -18,-29 -47,25 -104,49 -146,86 14,-112 12,-228 30,-340 4,-22 -30,-32 -34,-10 -17,112 -17,226 -29,340 -8,67 -16,128 -67,175 -34,32 -173,136 -203,164 -63,59 -108,134 -169,195 -79,78 -181,114 -285,145 -22,6 -12,40 10,34 82,-26 167,-53 240,-105 63,-45 108,-106 155,-165 59,-73 124,-134 215,-165 104,-36 214,-26 318,2 20,10 30,-24 8,-30z"/>
     <path class="fil17" d="M2261 6212c-81,-37 -136,-80 -193,-147 -47,-57 -104,-103 -171,-134 -57,-28 -138,-36 -187,-79 -2,-2 -4,-2 -4,-4 -16,-15 -28,-33 -34,-59 -9,-45 -5,-94 -7,-141 -2,-50 -4,-101 -4,-150 0,-22 -36,-22 -36,0 4,94 -8,201 12,293 -24,-18 -49,-35 -75,-51 -74,-45 -135,-90 -167,-175 -28,-79 -26,-161 -29,-244 -4,-77 -14,-154 -26,-230 -4,-22 -37,-12 -34,10 16,94 24,190 28,285 2,59 8,116 24,173 -81,-57 -189,-69 -272,-126 -18,-12 -35,18 -18,30 101,68 248,68 321,175 2,2 4,4 6,6 26,39 57,70 98,96 73,47 183,159 296,189 104,27 183,79 251,161 59,71 116,114 201,152 22,10 39,-20 20,-30z"/>
    </g>
    <g>
     <circle class="fil3" cx="2717" cy="6149" r="51"/>
     <circle class="fil3" cx="2790" cy="6364" r="51"/>
     <circle class="fil3" cx="2823" cy="6651" r="51"/>
    </g>
    <path class="fil18" d="M2987 5384c0,-6 0,-10 0,-16 0,-6 0,-12 0,-18 0,-5 -2,-9 -8,-9 -4,0 -6,-2 -10,-2 -12,-2 -24,0 -35,0 -10,0 -20,2 -30,2 -14,2 -29,4 -43,6 -8,1 -116,21 -126,23 -6,2 -10,2 -16,4l-31 10c-4,2 -8,2 -12,4 -10,4 -22,6 -32,10 -11,4 -21,6 -33,8 -6,2 -116,3 -130,5 -2,0 -4,0 -6,0l-139 24c0,0 0,0 0,0 -8,2 -14,4 -22,4 -12,2 -22,6 -34,8 -9,2 -19,4 -29,6 -4,0 -8,2 -12,6 -2,2 -4,4 -4,6 0,2 0,2 0,4 2,9 4,21 8,31 0,2 0,2 2,4 2,4 4,6 8,8 2,0 4,0 6,2 4,0 8,2 10,6 2,2 2,4 4,4 4,6 5,11 9,17 8,18 16,34 28,50 6,9 12,17 20,25 11,10 23,18 39,20 6,0 14,0 20,0 11,0 23,-2 37,-4 18,-2 33,-6 49,-12 10,-2 18,-6 28,-8 10,-2 19,-6 27,-10 14,-6 26,-15 32,-31 2,-6 4,-10 6,-16 4,-12 8,-24 10,-35 3,-12 5,-24 11,-36 2,-6 6,-14 10,-19 4,-6 10,-10 16,-14 4,-2 8,-2 12,-2 2,0 4,2 6,2 2,2 6,4 8,6 5,4 9,10 15,15 6,8 12,14 18,22 6,8 10,14 16,22 10,12 21,23 33,31 10,6 20,12 30,14 10,2 21,4 31,4 14,0 28,-2 41,-4 18,-2 38,-6 56,-12 9,-2 17,-6 27,-10 14,-6 26,-15 34,-29 3,-6 7,-14 9,-20 6,-14 8,-25 12,-39 2,-14 6,-26 10,-40 2,-7 6,-13 12,-19 0,2 2,-2 2,-8z"/>
    <path class="fil19" d="M2654 5569c-53,14 -23,90 26,94 98,-31 315,-120 338,-132 24,-11 -291,20 -364,38z"/>
   </g>
  </g>
 </g>
</svg>
